<mxfile host="app.diagrams.net" modified="2023-08-12T05:32:06.583Z" agent="Mozilla/5.0 (Windows NT 10.0; Win64; x64) AppleWebKit/537.36 (KHTML, like Gecko) Chrome/115.0.0.0 Safari/537.36" etag="yxGr0hsyM3Uefw1doaRL" version="21.1.7" type="device">
  <diagram name="Page-1" id="r9hArSmL2gKs6GhH3BHH">
    <mxGraphModel dx="2901" dy="1118" grid="1" gridSize="10" guides="1" tooltips="1" connect="1" arrows="1" fold="1" page="1" pageScale="1" pageWidth="827" pageHeight="1169" math="0" shadow="0">
      <root>
        <mxCell id="0" />
        <mxCell id="1" parent="0" />
        <mxCell id="DbNAj_Ju70iqVcC8Hiro-1" value="MasterGun" style="swimlane;fontStyle=1;align=center;verticalAlign=top;childLayout=stackLayout;horizontal=1;startSize=26;horizontalStack=0;resizeParent=1;resizeParentMax=0;resizeLast=0;collapsible=1;marginBottom=0;whiteSpace=wrap;html=1;" vertex="1" parent="1">
          <mxGeometry x="230" y="190" width="280" height="260" as="geometry" />
        </mxCell>
        <mxCell id="DbNAj_Ju70iqVcC8Hiro-2" value="public:&lt;br&gt;- PullTrigger() /*Find better name*/&lt;br&gt;&lt;br&gt;protected:&lt;br&gt;- AController* GetOwnerController() const&lt;br&gt;- BeginPlay() override&lt;br&gt;- Tick(float DeltaTime) override" style="text;strokeColor=none;fillColor=none;align=left;verticalAlign=top;spacingLeft=4;spacingRight=4;overflow=hidden;rotatable=0;points=[[0,0.5],[1,0.5]];portConstraint=eastwest;whiteSpace=wrap;html=1;" vertex="1" parent="DbNAj_Ju70iqVcC8Hiro-1">
          <mxGeometry y="26" width="280" height="114" as="geometry" />
        </mxCell>
        <mxCell id="DbNAj_Ju70iqVcC8Hiro-3" value="" style="line;strokeWidth=1;fillColor=none;align=left;verticalAlign=middle;spacingTop=-1;spacingLeft=3;spacingRight=3;rotatable=0;labelPosition=right;points=[];portConstraint=eastwest;strokeColor=inherit;" vertex="1" parent="DbNAj_Ju70iqVcC8Hiro-1">
          <mxGeometry y="140" width="280" height="8" as="geometry" />
        </mxCell>
        <mxCell id="DbNAj_Ju70iqVcC8Hiro-4" value="protected:&lt;br&gt;- USoundBase* muzzleSound&lt;br&gt;- USoundBase* imapctSound&lt;br&gt;- USeneComponent* root&lt;br&gt;- USkeletalMeshComponent* skeletalComponent&lt;br&gt;- UParticleSystem* muzzleFlash&lt;br&gt;- UParticleSystem* impactEffect" style="text;strokeColor=none;fillColor=none;align=left;verticalAlign=top;spacingLeft=4;spacingRight=4;overflow=hidden;rotatable=0;points=[[0,0.5],[1,0.5]];portConstraint=eastwest;whiteSpace=wrap;html=1;" vertex="1" parent="DbNAj_Ju70iqVcC8Hiro-1">
          <mxGeometry y="148" width="280" height="112" as="geometry" />
        </mxCell>
        <mxCell id="DbNAj_Ju70iqVcC8Hiro-5" value="RocketLauncher&lt;br&gt;" style="swimlane;fontStyle=1;align=center;verticalAlign=top;childLayout=stackLayout;horizontal=1;startSize=26;horizontalStack=0;resizeParent=1;resizeParentMax=0;resizeLast=0;collapsible=1;marginBottom=0;whiteSpace=wrap;html=1;" vertex="1" parent="1">
          <mxGeometry x="-140" y="551" width="220" height="290" as="geometry" />
        </mxCell>
        <mxCell id="DbNAj_Ju70iqVcC8Hiro-6" value="public:&lt;br&gt;- PullTrigger() override&lt;br&gt;&lt;br&gt;protected:&lt;br&gt;- BeginPlay() override&lt;br&gt;- Tick(float DeltaTime) override" style="text;strokeColor=none;fillColor=none;align=left;verticalAlign=top;spacingLeft=4;spacingRight=4;overflow=hidden;rotatable=0;points=[[0,0.5],[1,0.5]];portConstraint=eastwest;whiteSpace=wrap;html=1;" vertex="1" parent="DbNAj_Ju70iqVcC8Hiro-5">
          <mxGeometry y="26" width="220" height="144" as="geometry" />
        </mxCell>
        <mxCell id="DbNAj_Ju70iqVcC8Hiro-7" value="" style="line;strokeWidth=1;fillColor=none;align=left;verticalAlign=middle;spacingTop=-1;spacingLeft=3;spacingRight=3;rotatable=0;labelPosition=right;points=[];portConstraint=eastwest;strokeColor=inherit;" vertex="1" parent="DbNAj_Ju70iqVcC8Hiro-5">
          <mxGeometry y="170" width="220" height="8" as="geometry" />
        </mxCell>
        <mxCell id="DbNAj_Ju70iqVcC8Hiro-8" value="+ method(type): type" style="text;strokeColor=none;fillColor=none;align=left;verticalAlign=top;spacingLeft=4;spacingRight=4;overflow=hidden;rotatable=0;points=[[0,0.5],[1,0.5]];portConstraint=eastwest;whiteSpace=wrap;html=1;" vertex="1" parent="DbNAj_Ju70iqVcC8Hiro-5">
          <mxGeometry y="178" width="220" height="112" as="geometry" />
        </mxCell>
        <mxCell id="DbNAj_Ju70iqVcC8Hiro-9" value="AssaultRifle" style="swimlane;fontStyle=1;align=center;verticalAlign=top;childLayout=stackLayout;horizontal=1;startSize=26;horizontalStack=0;resizeParent=1;resizeParentMax=0;resizeLast=0;collapsible=1;marginBottom=0;whiteSpace=wrap;html=1;" vertex="1" parent="1">
          <mxGeometry x="550" y="610" width="160" height="86" as="geometry" />
        </mxCell>
        <mxCell id="DbNAj_Ju70iqVcC8Hiro-10" value="+ field: type" style="text;strokeColor=none;fillColor=none;align=left;verticalAlign=top;spacingLeft=4;spacingRight=4;overflow=hidden;rotatable=0;points=[[0,0.5],[1,0.5]];portConstraint=eastwest;whiteSpace=wrap;html=1;" vertex="1" parent="DbNAj_Ju70iqVcC8Hiro-9">
          <mxGeometry y="26" width="160" height="26" as="geometry" />
        </mxCell>
        <mxCell id="DbNAj_Ju70iqVcC8Hiro-11" value="" style="line;strokeWidth=1;fillColor=none;align=left;verticalAlign=middle;spacingTop=-1;spacingLeft=3;spacingRight=3;rotatable=0;labelPosition=right;points=[];portConstraint=eastwest;strokeColor=inherit;" vertex="1" parent="DbNAj_Ju70iqVcC8Hiro-9">
          <mxGeometry y="52" width="160" height="8" as="geometry" />
        </mxCell>
        <mxCell id="DbNAj_Ju70iqVcC8Hiro-12" value="+ method(type): type" style="text;strokeColor=none;fillColor=none;align=left;verticalAlign=top;spacingLeft=4;spacingRight=4;overflow=hidden;rotatable=0;points=[[0,0.5],[1,0.5]];portConstraint=eastwest;whiteSpace=wrap;html=1;" vertex="1" parent="DbNAj_Ju70iqVcC8Hiro-9">
          <mxGeometry y="60" width="160" height="26" as="geometry" />
        </mxCell>
        <mxCell id="DbNAj_Ju70iqVcC8Hiro-14" value="" style="endArrow=open;endFill=1;endSize=12;html=1;rounded=0;exitX=1;exitY=0.5;exitDx=0;exitDy=0;" edge="1" parent="1" source="DbNAj_Ju70iqVcC8Hiro-6" target="DbNAj_Ju70iqVcC8Hiro-4">
          <mxGeometry width="160" relative="1" as="geometry">
            <mxPoint x="310" y="720" as="sourcePoint" />
            <mxPoint x="470" y="720" as="targetPoint" />
            <Array as="points">
              <mxPoint x="370" y="649" />
            </Array>
          </mxGeometry>
        </mxCell>
        <mxCell id="DbNAj_Ju70iqVcC8Hiro-17" value="" style="endArrow=open;endFill=1;endSize=12;html=1;rounded=0;exitX=0;exitY=0.5;exitDx=0;exitDy=0;" edge="1" parent="1" source="DbNAj_Ju70iqVcC8Hiro-10">
          <mxGeometry width="160" relative="1" as="geometry">
            <mxPoint x="360" y="760" as="sourcePoint" />
            <mxPoint x="370" y="450" as="targetPoint" />
            <Array as="points">
              <mxPoint x="370" y="649" />
            </Array>
          </mxGeometry>
        </mxCell>
      </root>
    </mxGraphModel>
  </diagram>
</mxfile>
